<?xml version="1.0" encoding="UTF-8"?>
<svg width="20px" height="20px" viewBox="0 0 20 20" version="1.1" xmlns="http://www.w3.org/2000/svg" xmlns:xlink="http://www.w3.org/1999/xlink">
    <!-- Generator: Sketch 52.4 (67378) - http://www.bohemiancoding.com/sketch -->
    <title>add_tick</title>
    <desc>Created with Sketch.</desc>
    <g id="Page-1" stroke="none" stroke-width="1" fill="none" fill-rule="evenodd">
        <g id="add_tick" fill="#7F1751" fill-rule="nonzero">
            <path d="M10,0 C4.48,0 0,4.48 0,10 C0,15.52 4.48,20 10,20 C15.52,20 20,15.52 20,10 C20,4.48 15.52,0 10,0 Z M10,18 C5.59,18 2,14.41 2,10 C2,5.59 5.59,2 10,2 C14.41,2 18,5.59 18,10 C18,14.41 14.41,18 10,18 Z" id="path"></path>
            <polygon id="path-path" transform="translate(11.334843, 10.207215) rotate(-36.000000) translate(-11.334843, -10.207215) " points="6.33484309 9.20721489 6.33484309 11.2072149 16.3348431 11.2072149 16.3348431 9.20721489"></polygon>
            <polygon id="path-path" transform="translate(6.602358, 11.514959) rotate(-140.000000) translate(-6.602358, -11.514959) " points="4.10235807 10.5149587 4.10235807 12.5149587 9.10235807 12.5149587 9.10235807 10.5149587"></polygon>
        </g>
    </g>
</svg>