<?xml version="1.0" encoding="UTF-8"?>
<svg width="553px" height="558px" viewBox="0 0 553 558" version="1.1" xmlns="http://www.w3.org/2000/svg" xmlns:xlink="http://www.w3.org/1999/xlink">
    <!-- Generator: Sketch 52.4 (67378) - http://www.bohemiancoding.com/sketch -->
    <title>camera5</title>
    <desc>Created with Sketch.</desc>
    <g id="camera5" stroke="none" stroke-width="1" fill="none" fill-rule="evenodd">
        <g id="camera" transform="translate(21.000000, 23.000000)" fill="#7F1751">
            <path d="M256,2.84217094e-14 C317.26,2.84217094e-14 373.486,21.529 417.549,57.418 C322.402368,72.9579807 261.552702,132.151981 235,235 C231.751888,237.887884 228.751888,244.887884 226,256 C179.715692,147.839343 168.826692,65.0860096 193.333,7.74 C213.388,2.693 234.379,2.84217094e-14 256,2.84217094e-14 Z M440.664,78.714 C484.841,124.717 512,187.184 512,256 C512,268.352 511.106,280.494 509.416,292.379 C447.395586,220.424919 364.590253,198.298586 261,226 C253,226 245.333333,228 238,232 C281.333333,140.666667 348.888,89.5713333 440.664,78.714 Z M8.177,191.59 C28.903,111.617 87.317,46.832 163.333,17.3 C140.20764,105.925107 161.09664,186.491774 226,259 C227.333333,267.666667 233.333333,275.723333 244,283.17 C141.333333,273.180203 64.6539419,243.40188 13.9618258,193.835031 C12.9301605,192.826266 11.0018852,192.077923 8.177,191.59 Z M267.333,228 C398.444333,224.5 477.010667,256.278 503.032,323.334 C482.417,399.143 427.854,460.958 356.667,491.436 C362.889,399.145333 338.333333,316.666667 283,244 C279,235.333333 273.777667,230 267.333,228 Z M2.147,222.75 C88.7156667,272.389333 171.333333,293.472667 250,286 C261.555333,286 270.555333,283 277,277 C215.666667,369.666667 150.381836,423.934855 81.1455069,439.804564 C80.5904372,439.931792 79.9902682,440.423937 79.345,441.281 C30.46,394.658 2.84217094e-14,328.887 2.84217094e-14,256 C2.84217094e-14,244.731 0.735,233.634 2.147,222.75 Z M103.765,461.823 C205.255,411.274333 263.666667,349 279,275 C285.666667,269.666667 287.333333,260 284,246 C334.373168,361.575094 348.595501,446.946761 326.667,502.115 C304.22,508.548 280.514,512 256,512 C198.977,512 146.316,493.347 103.765,461.823 Z" id="Combined-Shape"></path>
        </g>
    </g>
</svg>