<?xml version="1.0" encoding="UTF-8"?>
<svg width="553px" height="558px" viewBox="0 0 553 558" version="1.1" xmlns="http://www.w3.org/2000/svg" xmlns:xlink="http://www.w3.org/1999/xlink">
    <!-- Generator: Sketch 52.4 (67378) - http://www.bohemiancoding.com/sketch -->
    <title>camera1</title>
    <desc>Created with Sketch.</desc>
    <g id="camera1" stroke="none" stroke-width="1" fill="none" fill-rule="evenodd">
        <g id="camera" transform="translate(21.000000, 23.000000)" fill="#7F1751">
            <path d="M256,0 C234.379,0 213.388,2.693 193.333,7.74 L193.333,186.869 L417.549,57.418 C373.486,21.529 317.26,0 256,0 Z" id="Path"></path>
            <path d="M440.664,78.714 L281,164 L509.416,292.379 C511.106,280.494 512,268.352 512,256 C512,187.184 484.841,124.717 440.664,78.714 Z" id="Path"></path>
            <path d="M8.177,191.59 L163.333,281.17 L163.333,17.3 C87.317,46.832 28.903,111.617 8.177,191.59 Z" id="Path"></path>
            <path d="M344,226 L356.667,491.436 C427.854,460.958 482.417,399.143 503.032,323.334 L344,226 Z" id="Path"></path>
            <path d="M2.147,222.75 C0.735,233.634 0,244.731 0,256 C0,328.887 30.46,394.658 79.345,441.281 L233,349 L2.147,222.75 Z" id="Path"></path>
            <path d="M103.765,461.823 C146.316,493.347 198.977,512 256,512 C280.514,512 304.22,508.548 326.667,502.115 L326.667,321 L103.765,461.823 Z" id="Path"></path>
        </g>
    </g>
</svg>